<svg height="150" viewBox="0 0 510 150" width="510" xmlns="http://www.w3.org/2000/svg">
    <path
        d="m447.7 81.814-1.23 3.19-1.22-3.19H444v4.5h.81v-3.51l1.34 3.51h.61l1.34-3.51v3.51h.9v-4.5h-1.3Zm-8.26 0v.71h1.38v3.79h.87v-3.79h1.37v-.71h-3.62Zm-294.02.01h-14.15l3 7.25-24.61 54.88h16.61l2.16-5.27 24-4.56 4.23 9.83h16.6l-27.84-62.13Zm-10.9 42.11h-.08l6.66-16.25 6 13.86-12.58 2.39ZM238.31 5.254v62.13h-15.89v-31.62l-13.92 16.53h-1.16l-13.84-16.53v31.62h-16V5.254h9.33L208 31.974l21.64-26.72h8.67Zm266.69 0-6.52 14.55H478.3v59.1l-16.3 2.91v-62h-20.94l2.94 7.26v40.31h-16.27v-25.59l-20.94 4v21.59h-16.24V5.254h16.24v26.31l20.94-4V5.254H505Zm-216.71 76.56v14.56h-18.53v47.58h-16.32v-47.58h-15.53l-6.53-14.56h56.91Zm-26.11-62v9.78h24.45l-6.37 14.21h-18.08v23.58H246V5.254h42.27v14.56h-26.09ZM145.71 5.254h-14.15l3 7.26-24.64 54.87h16.62l2.16-5.31 24-4.56 4.3 9.87h16.6l-27.89-62.13Zm-10.89 42.11h-.08l6.66-16.24 5.95 13.85-12.53 2.39ZM82 19.814v9.78h24.46L100 43.804H82v9h26.12l-6.58 14.58H65.79v-41.07l2.92-6.5H48v62l-16.32-3v-59H11.53L5 5.254h103.07v14.56H82Zm300.12 17.89v29.68l-13.83-2.43c-5.18 2.94-10.35 4.12-17.52 4.12-18.25 0-31.19-13.2-31.19-32s12.94-32 31.19-32c15.62 0 25.93 8.53 29.69 21.53h-16.75a14.387 14.387 0 0 0-12.32-6.11c-9.13 0-15.24 6.55-15.24 16.57s6.11 16.56 15.24 16.56c6.73 0 14.79-4 14.79-15.95h15.95l-.01.03Zm-149.6 84.13c-2.8 14-13.2 23.21-30.34 23.09-18.29-.13-31.24-13.22-31.24-32s12.95-32 31.24-32c15.79 0 26.17 8.7 29.85 21.92h-16.66c-2.63-4.09-7.05-6.48-12.57-6.48-9.15 0-15.27 6.57-15.27 16.6 0 10.03 6.12 16.6 15.27 16.6 6.1 0 10.82-2.9 13.31-7.65l16.41-.08ZM122.7 81.814l-6.52 14.56h-15.54v47.58H84.32v-47.58H65.79v-14.56h56.91Zm293.2 23.88c18 4.5 26.31 7.81 26.31 19.36s-7.78 19.87-27.65 19.87c-20.06 0-27.78-10.32-27.78-23.09h15.72c0 6.07 4 9.65 12.06 9.65 6.19 0 10.61-2.23 10.61-5.5 0-3-4.95-4.37-12-6.27-16.93-4.54-24.65-8.57-24.65-20 0-9.13 6.09-18.9 26.07-18.9s25.66 9.77 25.66 20.33H424.6c0-3.91-2.35-7-10-7s-9.3 2.9-9.3 5.33c0 3.1 3.63 4.42 10.64 6.17m-34.77 16.19c-2.8 14-13.21 23.21-30.34 23.09-18.29-.13-31.25-13.22-31.25-32s13-32 31.25-32c15.79 0 26.16 8.7 29.85 21.92H364c-2.64-4.09-7-6.48-12.58-6.48-9.14 0-15.26 6.57-15.26 16.6 0 10.03 6.12 16.6 15.26 16.6 6.1 0 10.83-2.9 13.31-7.65l16.44-.08ZM296 5.254h16.24v62.13H296V5.254Zm0 76.57h16.24v62.13H296v-62.13Z"
        fill="url(#a)" />
    <defs>
        <linearGradient id="a" x1="5" y1="5.255" x2="5" y2="144.545" gradientUnits="userSpaceOnUse">
            <stop offset="0%" stop-color="#F8B33F" />
            <stop offset="100%" stop-color="#D78C3A" />
        </linearGradient>
    </defs>
</svg>
