<svg viewBox="-11.75 61.3 183.3 320.25" xmlns="http://www.w3.org/2000/svg">
    <path
        d="M73.25 127.86l-6.11 22.64c-.35 1.66-1.04 3.24-2.02 4.63s-2.23 2.57-3.68 3.45c-1.45.89-3.06 1.47-4.75 1.71-1.68.24-3.4.13-5.04-.33-1.64-.44-3.18-1.21-4.55-2.28s-2.44-2.37-3.25-3.86c-.81-1.5-1.3-3.14-1.45-4.83-.15-1.69.04-3.37.58-4.95l6.06-22.61c.86-3.2 2.96-5.93 5.87-7.59 2.87-1.66 6.29-2.11 9.5-.93 3.2 1.18 5.93 3.27 7.59 6.16 1.65 2.89 2.1 6.33 1.25 9.53zm21.09 5.65l-6.04 22.67c-.46 1.6-.6 3.27-.4 4.92.2 1.65.73 3.24 1.55 4.66.81 1.43 1.91 2.7 3.22 3.73 1.33 1.02 2.82 1.77 4.43 2.2 1.61.43 3.27.53 4.9.3 1.64-.23 3.22-.78 4.65-1.62s2.68-1.96 3.66-3.29c1-1.33 1.71-2.85 2.12-4.46l6.07-22.61c.43-1.59.54-3.25.34-4.89-.21-1.64-.72-3.22-1.54-4.65-.82-1.43-1.91-2.7-3.22-3.72-1.32-1.03-2.82-1.78-4.44-2.22-1.61-.43-3.28-.53-4.91-.3-1.64.22-3.22.77-4.67 1.61-1.45.85-2.7 1.94-3.7 3.24-1 1.3-1.74 2.79-2.17 4.38zm60.96-37.99c6.41 4.41 11.29 10.7 13.96 17.97 2.67 7.3 2.99 15.27.92 22.77l-16.59 61.86c-1.97 7.53-6.26 14.26-12.29 19.25-6.06 4.99-13.43 8.01-21.19 8.63l-22.12 1.57c-2.59.18-5.06 1.17-7.07 2.82-2 1.64-3.44 3.88-4.11 6.39l-32.67 122.02c-2.1 7.84-7.33 14.53-14.36 18.58-7.03 4.06-15.38 5.16-23.21 3.06-7.84-2.1-14.51-7.33-18.58-14.36-4.06-7.03-5.16-15.38-3.06-23.21L27.91 221.04c.68-2.51.55-5.12-.36-7.56-1.91-2.44-4.56-4.54-7.72-6L4.47 195.04c-6.4-4.41-11.28-10.7-13.95-17.98-2.67-7.3-2.99-15.27-.93-22.77l16.61-61.81c1.96-7.53 6.22-14.26 12.23-19.26 6.01-5 13.36-8.01 21.13-8.63l42.86-3.09c13.21-.92 26.35 2.53 37.31 9.85l35.55 24.08zm-14.03 20.7l-35.55-24.08c-6.35-4.27-13.94-6.29-21.57-5.73l-42.87 3.1c-2.57.25-4.99 1.29-6.95 2.98s-3.33 3.94-3.94 6.44l-16.63 61.77c-.72 2.48-.65 5.12.19 7.56.84 2.45 2.42 4.57 4.54 6.06l18.36 12.4c6.46 4.37 11.39 10.66 14.11 17.97 2.67 7.3 3.05 15.29 1.03 22.82L19.37 349.49c-.31 1.41-.07 2.88.68 4.12.75 1.24 1.94 2.15 3.38 2.52 1.39.38 2.88.2 4.15-.49 1.27-.69 2.21-1.86 2.65-3.24l32.69-122.02c2.02-7.53 6.34-14.24 12.34-19.21 6.01-4.97 13.41-7.93 21.19-8.48l22.17-1.6c2.57-.25 5-.97 6.95-2.66s3.33-3.93 3.95-6.43l16.57-61.84c.71-2.49.57-5.13-.29-7.57-.85-2.44-2.4-4.56-4.55-6.06z" />
</svg>
