<svg width="100" height="100" viewBox="0 0 100 100" fill="none" xmlns="http://www.w3.org/2000/svg">
<g clip-path="url(#clip0_56809_530)">
<path d="M50.017 72.7827C62.5807 72.7827 72.7675 62.5891 72.7675 50.0169C72.7675 37.4447 62.5807 27.251 50.017 27.251C37.4534 27.251 27.2666 37.4447 27.2666 50.0169C27.2666 62.5891 37.4534 72.7827 50.017 72.7827Z" fill="#CF8DD1"/>
<path d="M100.102 50.0679C100.102 22.5168 77.6528 0.0678711 50.1018 0.0678711C22.5508 0.0678711 0.101807 22.5168 0.101807 50.0679C0.101807 77.6189 22.5508 100.068 50.1018 100.068C77.6528 100.068 100.102 77.6189 100.102 50.0679ZM86.4964 50.0679C86.4964 70.1359 70.1698 86.4624 50.1018 86.4624C30.0338 86.4624 13.7072 70.1359 13.7072 50.0679C13.7072 29.9998 30.0338 13.6733 50.1018 13.6733C70.1698 13.6733 86.4964 29.9998 86.4964 50.0679Z" fill="#CF8DD1"/>
</g>
<defs>
<clipPath id="clip0_56809_530">
<rect width="100" height="100" fill="white"/>
</clipPath>
</defs>
</svg>
